<?xml version="1.0" standalone="no"?><!DOCTYPE svg PUBLIC "-//W3C//DTD SVG 1.1//EN" "http://www.w3.org/Graphics/SVG/1.1/DTD/svg11.dtd"><svg t="1630908607813" class="icon" viewBox="0 0 1024 1024" version="1.1" xmlns="http://www.w3.org/2000/svg" p-id="1595" data-spm-anchor-id="a313x.7781069.0.i7" xmlns:xlink="http://www.w3.org/1999/xlink" width="48" height="48"><defs><style type="text/css"></style></defs><path d="M528.2816 131.413333a34.133333 34.133333 0 1 1 1.570133 68.232534c-124.654933 2.833067-186.368 82.807467-188.893866 255.1808l-0.068267 11.127466c0 211.933867-77.687467 337.066667-232.7552 362.496a34.133333 34.133333 0 1 1-11.025067-67.3792c114.551467-18.773333 172.9536-109.226667 175.445334-283.374933l0.068266-11.741867c0-213.742933 86.528-330.683733 255.658667-334.574933z" fill="#dbdbdb" p-id="1596" data-spm-anchor-id="a313x.7781069.0.i9" class=""></path><path d="M529.851733 131.413333a34.133333 34.133333 0 0 0-1.570133 68.232534c122.231467 2.833067 182.954667 82.602667 185.412267 254.7712l0.068266 11.093333c0 211.5584 75.434667 336.554667 226.645334 362.018133a34.133333 34.133333 0 1 0 11.3664-67.310933c-110.523733-18.6368-167.185067-108.8512-169.642667-282.692267l-0.1024-12.014933c0-213.367467-85.230933-330.24-252.177067-334.1312z" fill="#dbdbdb" p-id="1597" data-spm-anchor-id="a313x.7781069.0.i8" class=""></path><path d="M959.488 760.593067a34.133333 34.133333 0 0 1 3.959467 68.027733l-3.9936 0.238933H102.6048a34.133333 34.133333 0 0 1-3.959467-68.061866l3.959467-0.2048H959.488z" fill="#dbdbdb" p-id="1598" data-spm-anchor-id="a313x.7781069.0.i11" class=""></path><path d="M686.8992 762.0608a34.133333 34.133333 0 0 1 34.133333 34.133333c0 99.0208-86.596267 177.9712-191.931733 177.9712-105.335467 0-191.931733-78.9504-191.931733-177.9712a34.133333 34.133333 0 1 1 68.266666 0c0 59.835733 54.715733 109.704533 123.665067 109.704534 68.949333 0 123.665067-49.834667 123.665067-109.704534a34.133333 34.133333 0 0 1 34.133333-34.133333zM531.592533 16.4864a34.133333 34.133333 0 0 1 34.133334 34.133333v86.1184a34.133333 34.133333 0 1 1-68.266667 0V50.619733a34.133333 34.133333 0 0 1 34.133333-34.133333z" fill="#dbdbdb" p-id="1599" data-spm-anchor-id="a313x.7781069.0.i10" class=""></path></svg>